<?xml version="1.0" encoding="UTF-8"?>
<svg enable-background="new 0 0 103.711 97.838" version="1.1" viewBox="0 0 103.71 97.838" xml:space="preserve" xmlns="http://www.w3.org/2000/svg" xmlns:xlink="http://www.w3.org/1999/xlink">
	<defs>
		<rect id="b" x="30.175" y="34.617" width="43.842" height="29.524"/>
	</defs>
	<clipPath id="a">
		<use overflow="visible" xlink:href="#b"/>
	</clipPath>
	<path d="m64.296 60.685h7.033c0.293 0 0.525 0.097 0.525 0.214v1.029c0 0.118-0.232 0.208-0.525 0.208h-7.033c-0.292 0-0.525-0.09-0.525-0.208v-1.029c0-0.118 0.233-0.214 0.525-0.214m-7.225-18.036c4.068 0 7.373 3.362 7.373 7.5 0 4.139-3.305 7.492-7.373 7.492-4.07 0-7.375-3.354-7.375-7.492 0-4.137 3.305-7.5 7.375-7.5m0-1.154c-4.699 0-8.515 3.877-8.515 8.654 0 4.778 3.815 8.654 8.515 8.654 4.698 0 8.514-3.876 8.514-8.654 0-4.777-3.815-8.654-8.514-8.654m0-0.829c5.148 0 9.328 4.249 9.328 9.483 0 5.235-4.18 9.483-9.328 9.483-5.149 0-9.328-4.248-9.328-9.483 0-5.234 4.179-9.483 9.328-9.483m-23.498-2.421h9.912c0.412 0 0.748 0.328 0.748 0.74v3.599c0 0.411-0.336 0.739-0.748 0.739h-9.912c-0.412 0-0.74-0.328-0.74-0.739v-3.599c0-0.412 0.328-0.74 0.74-0.74m27.888-3.628c-0.412 0-0.748 0.328-0.748 0.74v0.696h-29.14c-0.776 0-1.398 0.622-1.398 1.398v25.282c0 0.778 0.622 1.407 1.398 1.407h41.045c0.776 0 1.398-0.629 1.398-1.407v-25.281c0-0.776-0.622-1.398-1.398-1.398h-2.267v-0.696c0-0.412-0.335-0.74-0.747-0.74h-8.143z" clip-path="url(#a)"/>

</svg>
